<?xml version="1.0" encoding="UTF-8"?>
<svg width="371px" height="433px" viewBox="0 0 371 433" version="1.1" xmlns="http://www.w3.org/2000/svg" xmlns:xlink="http://www.w3.org/1999/xlink">
    <title>Shevron-Group</title>
    <g id="Page-1" stroke="none" stroke-width="1" fill="none" fill-rule="evenodd">
        <g id="Shevron-Group" transform="translate(1.981, 2.1791)">
            <path d="M0,0 C244.438983,0 366.658474,0 366.658474,0 C366.658474,0 366.372108,61.0818134 365.799375,183.24544 C364.042484,203.760152 361.226002,223.423841 357.349928,242.236508 C353.473855,261.049175 344.891688,284.812524 331.603428,313.526556 C317.138634,338.785917 297.564073,361.097529 272.879744,380.461394 C248.195415,399.825258 217.87719,416.004794 181.925068,429 C139.811748,409.529039 107.826378,390.81721 85.9689572,372.864512 C53.1828256,345.935465 47.3917714,342.388023 31.3933167,313.526556 C23.9815849,300.155674 15.8513984,279.538806 8.66138763,242.236508 C2.25483997,208.998873 0,181.342096 0,164.850969 C0,135.470081 0,80.5197576 0,0 Z" id="Fon" stroke="#000000" stroke-width="3" fill="#333333"></path>
            <path d="M13,14.5133908 C240.622611,14.5133908 354.433917,14.5133908 354.433917,14.5133908 C354.433917,14.5133908 354.167252,71.393033 353.633921,185.152317 C351.997896,204.255704 349.375176,222.566614 345.76576,240.085049 C342.156345,257.603483 334.164595,279.732014 321.79051,306.470642 C308.320834,329.992265 290.09292,350.768933 267.106769,368.800645 C244.120617,386.832357 215.888158,401.898809 182.40939,414 C143.19329,395.868559 113.408378,378.444025 93.0546555,361.726397 C62.5240715,336.649954 57.1314174,333.346561 42.2335889,306.470642 C35.331753,294.01962 27.7608891,274.821106 21.0655207,240.085049 C15.0997165,209.134023 13,183.379915 13,168.023309 C13,140.663701 13,89.4937287 13,14.5133908 Z" id="Fon" stroke="#FFFFFF" stroke-width="3" fill="#333333"></path>
            <path d="M29.5321322,65.4871841 L92.0894748,65.4871841 L92.0894748,99.0752782 L152.66302,99.0752782 L152.66302,65.4871841 L214.166563,65.4871841 L214.166563,99.0752782 C254.549068,99.0752782 274.740321,99.0752782 274.740321,99.0752782 C274.740321,99.0752782 274.740321,87.8792468 274.740321,65.4871841 L337.691559,65.4871841 L337.691559,99.0752782 L337.691559,179.035417 C336.994552,198.477521 334.232518,218.225259 329.405455,238.27863 C324.578392,258.332002 317.543033,277.871557 308.299378,296.897296 C289.466087,325.318788 271.713501,345.54055 255.04162,357.562582 C213.288036,387.670938 182.650772,396.378201 182.650772,396.378201 C182.650772,396.378201 152.949896,385.287518 112.738773,356.868611 C87.1365552,338.774436 68.7513751,318.783998 57.583233,296.897296 C45.3512225,269.396293 37.951901,247.408092 35.3852687,230.932693 C32.8186364,214.457293 30.8675909,197.158201 29.5321322,179.035417 L29.5321322,65.4871841 Z" id="Contur_inner" stroke="#FFFFFF" stroke-width="3" fill="#FFFFFD"></path>
            <g id="Arrows" transform="translate(53.3905, 78.5274)" fill="#000000" stroke="#000000">
                <g id="Group-Arrow" transform="translate(123.4071, 0)">
                    <path d="M1.31679413,19.2935792 C5.15154921,6.43119307 7.06892675,-1.42108547e-14 7.06892675,-1.42108547e-14 C7.06892675,-1.42108547e-14 8.98630429,6.43119307 12.8210594,19.2935792 L6.81427215,17.0154924 L1.31679413,19.2935792 Z" id="Path-2"></path>
                    <path d="M7.06892675,61.5494744 L0,65.526282 L3.86240684,68.8110232 L0,73.9960384 C2.57493789,73.9960384 3.86240684,73.9960384 3.86240684,73.9960384 C3.86240684,73.9960384 2.57493789,75.343932 0,78.039719 L3.86240684,79.6038011 L0,84.4546385 L3.86240684,84.4546385 C1.72472689,88.0728145 0.655886921,89.8819026 0.655886921,89.8819026 C0.655886921,89.8819026 2.77101273,88.7789805 7.00126436,86.5731363 L13.6281355,89.8819026 L11.1679291,84.4546385 L14.7577362,84.4546385 L11.1679291,79.6038011 L14.7577362,79.6038011 L11.1679291,73.9960384 C13.5611338,73.9960384 14.7577362,73.9960384 14.7577362,73.9960384 C14.7577362,73.9960384 13.5611338,72.2677 11.1679291,68.8110232 C13.5611338,66.6211958 14.7577362,65.526282 14.7577362,65.526282 C14.7577362,65.526282 12.1947997,64.2006795 7.06892675,61.5494744 Z" id="Path-3"></path>
                    <polyline id="Path-4" stroke-width="2" points="6.81427215 17.0154924 6.81427215 57.0533493 6.81427215 61.5494744"></polyline>
                </g>
                <g id="Group-Arrow" transform="translate(43.0195, 94.389) rotate(-58) translate(-43.0195, -94.389)translate(35.6407, 49.4481)">
                    <path d="M1.31679413,19.2935792 C5.15154921,6.43119307 7.06892675,-1.42108547e-14 7.06892675,-1.42108547e-14 C7.06892675,-1.42108547e-14 8.98630429,6.43119307 12.8210594,19.2935792 L6.81427215,17.0154924 L1.31679413,19.2935792 Z" id="Path-2"></path>
                    <path d="M7.06892675,61.5494744 L0,65.526282 L3.86240684,68.8110232 L0,73.9960384 C2.57493789,73.9960384 3.86240684,73.9960384 3.86240684,73.9960384 C3.86240684,73.9960384 2.57493789,75.343932 0,78.039719 L3.86240684,79.6038011 L0,84.4546385 L3.86240684,84.4546385 C1.72472689,88.0728145 0.655886921,89.8819026 0.655886921,89.8819026 C0.655886921,89.8819026 2.77101273,88.7789805 7.00126436,86.5731363 L13.6281355,89.8819026 L11.1679291,84.4546385 L14.7577362,84.4546385 L11.1679291,79.6038011 L14.7577362,79.6038011 L11.1679291,73.9960384 C13.5611338,73.9960384 14.7577362,73.9960384 14.7577362,73.9960384 C14.7577362,73.9960384 13.5611338,72.2677 11.1679291,68.8110232 C13.5611338,66.6211958 14.7577362,65.526282 14.7577362,65.526282 C14.7577362,65.526282 12.1947997,64.2006795 7.06892675,61.5494744 Z" id="Path-3"></path>
                    <polyline id="Path-4" stroke-width="2" points="6.81427215 17.0154924 6.81427215 57.0533493 6.81427215 61.5494744"></polyline>
                </g>
                <g id="Group-Arrow" transform="translate(218.155, 94.5115) rotate(59) translate(-218.155, -94.5115)translate(210.7761, 49.5706)">
                    <path d="M1.31679413,19.2935792 C5.15154921,6.43119307 7.06892675,-1.42108547e-14 7.06892675,-1.42108547e-14 C7.06892675,-1.42108547e-14 8.98630429,6.43119307 12.8210594,19.2935792 L6.81427215,17.0154924 L1.31679413,19.2935792 Z" id="Path-2"></path>
                    <path d="M7.06892675,61.5494744 L0,65.526282 L3.86240684,68.8110232 L0,73.9960384 C2.57493789,73.9960384 3.86240684,73.9960384 3.86240684,73.9960384 C3.86240684,73.9960384 2.57493789,75.343932 0,78.039719 L3.86240684,79.6038011 L0,84.4546385 L3.86240684,84.4546385 C1.72472689,88.0728145 0.655886921,89.8819026 0.655886921,89.8819026 C0.655886921,89.8819026 2.77101273,88.7789805 7.00126436,86.5731363 L13.6281355,89.8819026 L11.1679291,84.4546385 L14.7577362,84.4546385 L11.1679291,79.6038011 L14.7577362,79.6038011 L11.1679291,73.9960384 C13.5611338,73.9960384 14.7577362,73.9960384 14.7577362,73.9960384 C14.7577362,73.9960384 13.5611338,72.2677 11.1679291,68.8110232 C13.5611338,66.6211958 14.7577362,65.526282 14.7577362,65.526282 C14.7577362,65.526282 12.1947997,64.2006795 7.06892675,61.5494744 Z" id="Path-3"></path>
                    <polyline id="Path-4" stroke-width="2" points="6.81427215 17.0154924 6.81427215 57.0533493 6.81427215 61.5494744"></polyline>
                </g>
                <g id="Group-Arrows" transform="translate(0, 162.0046)">
                    <g id="Group-Arrow" transform="translate(129.6914, 79.5208) rotate(-180) translate(-129.6914, -79.5208)translate(122.3125, 34.5799)">
                        <path d="M1.31679413,19.2935792 C5.15154921,6.43119307 7.06892675,-1.42108547e-14 7.06892675,-1.42108547e-14 C7.06892675,-1.42108547e-14 8.98630429,6.43119307 12.8210594,19.2935792 L6.81427215,17.0154924 L1.31679413,19.2935792 Z" id="Path-2"></path>
                        <path d="M7.06892675,61.5494744 L0,65.526282 L3.86240684,68.8110232 L0,73.9960384 C2.57493789,73.9960384 3.86240684,73.9960384 3.86240684,73.9960384 C3.86240684,73.9960384 2.57493789,75.343932 0,78.039719 L3.86240684,79.6038011 L0,84.4546385 L3.86240684,84.4546385 C1.72472689,88.0728145 0.655886921,89.8819026 0.655886921,89.8819026 C0.655886921,89.8819026 2.77101273,88.7789805 7.00126436,86.5731363 L13.6281355,89.8819026 L11.1679291,84.4546385 L14.7577362,84.4546385 L11.1679291,79.6038011 L14.7577362,79.6038011 L11.1679291,73.9960384 C13.5611338,73.9960384 14.7577362,73.9960384 14.7577362,73.9960384 C14.7577362,73.9960384 13.5611338,72.2677 11.1679291,68.8110232 C13.5611338,66.6211958 14.7577362,65.526282 14.7577362,65.526282 C14.7577362,65.526282 12.1947997,64.2006795 7.06892675,61.5494744 Z" id="Path-3"></path>
                        <polyline id="Path-4" stroke-width="2" points="6.81427215 17.0154924 6.81427215 57.0533493 6.81427215 61.5494744"></polyline>
                    </g>
                    <g id="Group-Arrow" transform="translate(217.4578, 30.0727) rotate(-238) translate(-217.4578, -30.0727)translate(210.0789, -14.8682)">
                        <path d="M1.31679413,19.2935792 C5.15154921,6.43119307 7.06892675,-1.42108547e-14 7.06892675,-1.42108547e-14 C7.06892675,-1.42108547e-14 8.98630429,6.43119307 12.8210594,19.2935792 L6.81427215,17.0154924 L1.31679413,19.2935792 Z" id="Path-2"></path>
                        <path d="M7.06892675,61.5494744 L0,65.526282 L3.86240684,68.8110232 L0,73.9960384 C2.57493789,73.9960384 3.86240684,73.9960384 3.86240684,73.9960384 C3.86240684,73.9960384 2.57493789,75.343932 0,78.039719 L3.86240684,79.6038011 L0,84.4546385 L3.86240684,84.4546385 C1.72472689,88.0728145 0.655886921,89.8819026 0.655886921,89.8819026 C0.655886921,89.8819026 2.77101273,88.7789805 7.00126436,86.5731363 L13.6281355,89.8819026 L11.1679291,84.4546385 L14.7577362,84.4546385 L11.1679291,79.6038011 L14.7577362,79.6038011 L11.1679291,73.9960384 C13.5611338,73.9960384 14.7577362,73.9960384 14.7577362,73.9960384 C14.7577362,73.9960384 13.5611338,72.2677 11.1679291,68.8110232 C13.5611338,66.6211958 14.7577362,65.526282 14.7577362,65.526282 C14.7577362,65.526282 12.1947997,64.2006795 7.06892675,61.5494744 Z" id="Path-3"></path>
                        <polyline id="Path-4" stroke-width="2" points="6.81427215 17.0154924 6.81427215 57.0533493 6.81427215 61.5494744"></polyline>
                    </g>
                    <g id="Group-Arrow" transform="translate(42.3223, 29.9502) rotate(-121) translate(-42.3223, -29.9502)translate(34.9434, -14.9907)">
                        <path d="M1.31679413,19.2935792 C5.15154921,6.43119307 7.06892675,-1.42108547e-14 7.06892675,-1.42108547e-14 C7.06892675,-1.42108547e-14 8.98630429,6.43119307 12.8210594,19.2935792 L6.81427215,17.0154924 L1.31679413,19.2935792 Z" id="Path-2"></path>
                        <path d="M7.06892675,61.5494744 L0,65.526282 L3.86240684,68.8110232 L0,73.9960384 C2.57493789,73.9960384 3.86240684,73.9960384 3.86240684,73.9960384 C3.86240684,73.9960384 2.57493789,75.343932 0,78.039719 L3.86240684,79.6038011 L0,84.4546385 L3.86240684,84.4546385 C1.72472689,88.0728145 0.655886921,89.8819026 0.655886921,89.8819026 C0.655886921,89.8819026 2.77101273,88.7789805 7.00126436,86.5731363 L13.6281355,89.8819026 L11.1679291,84.4546385 L14.7577362,84.4546385 L11.1679291,79.6038011 L14.7577362,79.6038011 L11.1679291,73.9960384 C13.5611338,73.9960384 14.7577362,73.9960384 14.7577362,73.9960384 C14.7577362,73.9960384 13.5611338,72.2677 11.1679291,68.8110232 C13.5611338,66.6211958 14.7577362,65.526282 14.7577362,65.526282 C14.7577362,65.526282 12.1947997,64.2006795 7.06892675,61.5494744 Z" id="Path-3"></path>
                        <polyline id="Path-4" stroke-width="2" points="6.81427215 17.0154924 6.81427215 57.0533493 6.81427215 61.5494744"></polyline>
                    </g>
                </g>
            </g>
            <g id="Group-99" transform="translate(119.9655, 177.0718)" fill="#333333" stroke="#000000" stroke-width="3">
                <path d="M34.0960058,46.3267996 C28.9777374,55.2705732 23.7123925,59.485505 18.2999712,58.9715952 C10.1813393,58.2007306 3.08660129,49.0629628 1.36585413,44.3411721 C-0.354893032,39.6193813 -0.74251454,31.8170244 1.93181019,25.4843573 C3.71469335,21.2625792 8.59427131,16.1818749 16.5705441,10.2422444 C25.7922463,3.41408148 32.8404651,0 37.7152004,0 C45.0273034,0 56.1671813,14.7706915 57.4879578,20.1275244 C58.8087344,25.4843573 62.657879,35.309912 57.4879578,46.3267996 C55.3737302,50.8321311 49.9037836,61.9978431 41.2256992,70.1774715 C27.1954985,83.4017987 15.9042839,93.221377 12.1785902,92.3683458 C10.9053709,91.0739936 9.25291228,89.6664804 9.66900361,87.8053499 C13.7034682,84.2040147 26.1469539,73.2436139 32.4082919,63.6277506 C38.6696299,54.0118872 39.7070172,46.4967331 39.7070172,39.1244032 C39.7070172,31.7520734 36.5395936,26.1097632 33.7237793,22.2611043 C30.9079649,18.4124454 27.2114224,13.1132056 22.2856001,15.092352 C19.3619858,16.0872779 18.2505986,17.630032 17.3157308,18.5400163 C15.6848125,20.1275244 16.9990078,28.429536 21.8247473,35.7491659 C25.0792335,40.6855357 29.169653,44.2114136 34.0960058,46.3267996 Z" id="Path"></path>
                <path d="M102.096006,46.3267996 C96.9777374,55.2705732 91.7123925,59.485505 86.2999712,58.9715952 C78.1813393,58.2007306 71.0866013,49.0629628 69.3658541,44.3411721 C67.645107,39.6193813 67.2574855,31.8170244 69.9318102,25.4843573 C71.7146934,21.2625792 76.5942713,16.1818749 84.5705441,10.2422444 C93.7922463,3.41408148 100.840465,2.84217094e-14 105.7152,2.84217094e-14 C113.027303,2.84217094e-14 124.167181,14.7706915 125.487958,20.1275244 C126.808734,25.4843573 130.657879,35.309912 125.487958,46.3267996 C123.37373,50.8321311 117.903784,61.9978431 109.225699,70.1774715 C95.1954985,83.4017987 83.9042839,93.221377 80.1785902,92.3683458 C78.9053709,91.0739936 77.2529123,89.6664804 77.6690036,87.8053499 C81.7034682,84.2040147 94.1469539,73.2436139 100.408292,63.6277506 C106.66963,54.0118872 107.707017,46.4967331 107.707017,39.1244032 C107.707017,31.7520734 104.539594,26.1097632 101.723779,22.2611043 C98.9079649,18.4124454 95.2114224,13.1132056 90.2856001,15.092352 C87.3619858,16.0872779 86.2505986,17.630032 85.3157308,18.5400163 C83.6848125,20.1275244 84.9990078,28.429536 89.8247473,35.7491659 C93.0792335,40.6855357 97.169653,44.2114136 102.096006,46.3267996 Z" id="Path"></path>
            </g>
            <g id="Group-stars" transform="translate(40.7079, 95.5429)" fill="#FFFFFF" stroke="#000000" stroke-width="3">
                <path d="M105.88432,16.2519517 L104.811503,32.2609702 L120.247972,31.1239922 L108.584697,41.7462797 L120.247972,52.3685672 L104.811503,51.2315892 L105.88432,67.2406076 L95.8281857,55.104571 L85.7720514,67.2406076 L86.844868,51.2315892 L71.4083993,52.3685672 L83.0716747,41.7462797 L71.4083993,31.1239922 L86.844868,32.2609702 L85.7720514,16.2519517 L95.8281857,28.3879884 L105.88432,16.2519517 Z" id="Star" transform="translate(95.8282, 41.7463) rotate(-22) translate(-95.8282, -41.7463)"></path>
                <path d="M199.88432,16.2519517 L198.811503,32.2609702 L214.247972,31.1239922 L202.584697,41.7462797 L214.247972,52.3685672 L198.811503,51.2315892 L199.88432,67.2406076 L189.828186,55.104571 L179.772051,67.2406076 L180.844868,51.2315892 L165.408399,52.3685672 L177.071675,41.7462797 L165.408399,31.1239922 L180.844868,32.2609702 L179.772051,16.2519517 L189.828186,28.3879884 L199.88432,16.2519517 Z" id="Star" transform="translate(189.8282, 41.7463) rotate(-22) translate(-189.8282, -41.7463)"></path>
                <path d="M105.88432,197.251952 L104.811503,213.26097 L120.247972,212.123992 L108.584697,222.74628 L120.247972,233.368567 L104.811503,232.231589 L105.88432,248.240608 L95.8281857,236.104571 L85.7720514,248.240608 L86.844868,232.231589 L71.4083993,233.368567 L83.0716747,222.74628 L71.4083993,212.123992 L86.844868,213.26097 L85.7720514,197.251952 L95.8281857,209.387988 L105.88432,197.251952 Z" id="Star" transform="translate(95.8282, 222.7463) rotate(-22) translate(-95.8282, -222.7463)"></path>
                <path d="M199.88432,197.251952 L198.811503,213.26097 L214.247972,212.123992 L202.584697,222.74628 L214.247972,233.368567 L198.811503,232.231589 L199.88432,248.240608 L189.828186,236.104571 L179.772051,248.240608 L180.844868,232.231589 L165.408399,233.368567 L177.071675,222.74628 L165.408399,212.123992 L180.844868,213.26097 L179.772051,197.251952 L189.828186,209.387988 L199.88432,197.251952 Z" id="Star" transform="translate(189.8282, 222.7463) rotate(-22) translate(-189.8282, -222.7463)"></path>
                <path d="M46.0918338,99.8789221 L45.0190173,115.88794 L60.455486,114.750962 L48.7922106,125.37325 L60.455486,135.995537 L45.0190173,134.858559 L46.0918338,150.867578 L36.0356996,138.731541 L25.9795653,150.867578 L27.0523819,134.858559 L11.6159131,135.995537 L23.2791886,125.37325 L11.6159131,114.750962 L27.0523819,115.88794 L25.9795653,99.8789221 L36.0356996,112.014959 L46.0918338,99.8789221 Z" id="Star" transform="translate(36.0357, 125.3732) rotate(-83) translate(-36.0357, -125.3732)"></path>
                <path d="M260.675744,99.1883137 L259.602928,115.197332 L275.039396,114.060354 L263.376121,124.682642 L275.039396,135.304929 L259.602928,134.167951 L260.675744,150.17697 L250.61961,138.040933 L240.563476,150.17697 L241.636292,134.167951 L226.199823,135.304929 L237.863099,124.682642 L226.199823,114.060354 L241.636292,115.197332 L240.563476,99.1883137 L250.61961,111.32435 L260.675744,99.1883137 Z" id="Star" transform="translate(250.6196, 124.6826) rotate(-84) translate(-250.6196, -124.6826)"></path>
            </g>
        </g>
    </g>
</svg>