
<svg width="341.433917px" height="399.486609px" viewBox="0 0 341.433917 399.486609" version="1.1" xmlns="http://www.w3.org/2000/svg" xmlns:xlink="http://www.w3.org/1999/xlink">
    <g id="Page-1" stroke="none" stroke-width="1" fill="none" fill-rule="evenodd">
        <g id="Shevron-Group" transform="translate(-0, 0)">
            <path d="M0,0 C227.622611,0 341.433917,0 341.433917,0 C341.433917,0 341.167252,56.8796422 340.633921,170.638927 C338.997896,189.742313 336.375176,208.053223 332.76576,225.571658 C329.156345,243.090092 321.164595,265.218624 308.79051,291.957251 C295.320834,315.478874 277.09292,336.255542 254.106769,354.287254 C231.120617,372.318966 202.888158,387.385418 169.40939,399.486609 C130.19329,381.355168 100.408378,363.930634 80.0546555,347.213006 C49.5240715,322.136564 44.1314174,318.833171 29.2335889,291.957251 C22.331753,279.506229 14.7608891,260.307715 8.06552069,225.571658 C2.09971649,194.620632 0,168.866524 0,153.509918 C0,126.15031 0,74.9803378 0,0 Z" id="Fon" stroke="#FFF500" stroke-width="2" fill="#FFF500"></path>
            <path d="M16.5321322,50.9737933 L79.0894748,50.9737933 L79.0894748,84.5618873 L139.66302,84.5618873 L139.66302,50.9737933 L201.166563,50.9737933 L201.166563,84.5618873 C241.549068,84.5618873 261.740321,84.5618873 261.740321,84.5618873 C261.740321,84.5618873 261.740321,73.365856 261.740321,50.9737933 L324.691559,50.9737933 L324.691559,84.5618873 L324.691559,164.522026 C323.994552,183.96413 321.232518,203.711868 316.405455,223.76524 C311.578392,243.818611 304.543033,263.358167 295.299378,282.383905 C276.466087,310.805397 258.713501,331.027159 242.04162,343.049191 C200.288036,373.157547 169.650772,381.86481 169.650772,381.86481 C169.650772,381.86481 139.949896,370.774127 99.7387733,342.35522 C74.1365552,324.261045 55.7513751,304.270607 44.583233,282.383905 C32.3512225,254.882903 24.951901,232.894701 22.3852687,216.419302 C19.8186364,199.943902 17.8675909,182.64481 16.5321322,164.522026 L16.5321322,50.9737933 Z" id="Contur_inner" stroke="#000099" fill="#000099"></path>
            <g id="Arrows" transform="translate(40.2067, 64.014)" fill="#FFFFFF" stroke="#FFFFFF">
                <g id="Group-Arrow" transform="translate(123.5909, 0)">
                    <path d="M1.31679413,19.2935792 C5.15154921,6.43119307 7.06892675,-1.42108547e-14 7.06892675,-1.42108547e-14 C7.06892675,-1.42108547e-14 8.98630429,6.43119307 12.8210594,19.2935792 L6.81427215,17.0154924 L1.31679413,19.2935792 Z" id="Path-2"></path>
                    <path d="M7.06892675,61.5494744 L0,65.526282 L3.86240684,68.8110232 L0,73.9960384 C2.57493789,73.9960384 3.86240684,73.9960384 3.86240684,73.9960384 C3.86240684,73.9960384 2.57493789,75.343932 0,78.039719 L3.86240684,79.6038011 L0,84.4546385 L3.86240684,84.4546385 C1.72472689,88.0728145 0.655886921,89.8819026 0.655886921,89.8819026 C0.655886921,89.8819026 2.77101273,88.7789805 7.00126436,86.5731363 L13.6281355,89.8819026 L11.1679291,84.4546385 L14.7577362,84.4546385 L11.1679291,79.6038011 L14.7577362,79.6038011 L11.1679291,73.9960384 C13.5611338,73.9960384 14.7577362,73.9960384 14.7577362,73.9960384 C14.7577362,73.9960384 13.5611338,72.2677 11.1679291,68.8110232 C13.5611338,66.6211958 14.7577362,65.526282 14.7577362,65.526282 C14.7577362,65.526282 12.1947997,64.2006795 7.06892675,61.5494744 Z" id="Path-3"></path>
                    <polyline id="Path-4" stroke-width="2" points="6.81427215 17.0154924 6.81427215 57.0533493 6.81427215 61.5494744"></polyline>
                </g>
                <g id="Group-Arrow" transform="translate(43.2033, 94.389) rotate(-58) translate(-43.2033, -94.389)translate(35.8245, 49.4481)">
                    <path d="M1.31679413,19.2935792 C5.15154921,6.43119307 7.06892675,-1.42108547e-14 7.06892675,-1.42108547e-14 C7.06892675,-1.42108547e-14 8.98630429,6.43119307 12.8210594,19.2935792 L6.81427215,17.0154924 L1.31679413,19.2935792 Z" id="Path-2"></path>
                    <path d="M7.06892675,61.5494744 L0,65.526282 L3.86240684,68.8110232 L0,73.9960384 C2.57493789,73.9960384 3.86240684,73.9960384 3.86240684,73.9960384 C3.86240684,73.9960384 2.57493789,75.343932 0,78.039719 L3.86240684,79.6038011 L0,84.4546385 L3.86240684,84.4546385 C1.72472689,88.0728145 0.655886921,89.8819026 0.655886921,89.8819026 C0.655886921,89.8819026 2.77101273,88.7789805 7.00126436,86.5731363 L13.6281355,89.8819026 L11.1679291,84.4546385 L14.7577362,84.4546385 L11.1679291,79.6038011 L14.7577362,79.6038011 L11.1679291,73.9960384 C13.5611338,73.9960384 14.7577362,73.9960384 14.7577362,73.9960384 C14.7577362,73.9960384 13.5611338,72.2677 11.1679291,68.8110232 C13.5611338,66.6211958 14.7577362,65.526282 14.7577362,65.526282 C14.7577362,65.526282 12.1947997,64.2006795 7.06892675,61.5494744 Z" id="Path-3"></path>
                    <polyline id="Path-4" stroke-width="2" points="6.81427215 17.0154924 6.81427215 57.0533493 6.81427215 61.5494744"></polyline>
                </g>
                <g id="Group-Arrow" transform="translate(218.3388, 94.5115) rotate(59) translate(-218.3388, -94.5115)translate(210.9599, 49.5706)">
                    <path d="M1.31679413,19.2935792 C5.15154921,6.43119307 7.06892675,-1.42108547e-14 7.06892675,-1.42108547e-14 C7.06892675,-1.42108547e-14 8.98630429,6.43119307 12.8210594,19.2935792 L6.81427215,17.0154924 L1.31679413,19.2935792 Z" id="Path-2"></path>
                    <path d="M7.06892675,61.5494744 L0,65.526282 L3.86240684,68.8110232 L0,73.9960384 C2.57493789,73.9960384 3.86240684,73.9960384 3.86240684,73.9960384 C3.86240684,73.9960384 2.57493789,75.343932 0,78.039719 L3.86240684,79.6038011 L0,84.4546385 L3.86240684,84.4546385 C1.72472689,88.0728145 0.655886921,89.8819026 0.655886921,89.8819026 C0.655886921,89.8819026 2.77101273,88.7789805 7.00126436,86.5731363 L13.6281355,89.8819026 L11.1679291,84.4546385 L14.7577362,84.4546385 L11.1679291,79.6038011 L14.7577362,79.6038011 L11.1679291,73.9960384 C13.5611338,73.9960384 14.7577362,73.9960384 14.7577362,73.9960384 C14.7577362,73.9960384 13.5611338,72.2677 11.1679291,68.8110232 C13.5611338,66.6211958 14.7577362,65.526282 14.7577362,65.526282 C14.7577362,65.526282 12.1947997,64.2006795 7.06892675,61.5494744 Z" id="Path-3"></path>
                    <polyline id="Path-4" stroke-width="2" points="6.81427215 17.0154924 6.81427215 57.0533493 6.81427215 61.5494744"></polyline>
                </g>
                <g id="Group-Arrows" transform="translate(0, 162.0046)">
                    <g id="Group-Arrow" transform="translate(129.8752, 79.5208) rotate(-180) translate(-129.8752, -79.5208)translate(122.4963, 34.5799)">
                        <path d="M1.31679413,19.2935792 C5.15154921,6.43119307 7.06892675,-1.42108547e-14 7.06892675,-1.42108547e-14 C7.06892675,-1.42108547e-14 8.98630429,6.43119307 12.8210594,19.2935792 L6.81427215,17.0154924 L1.31679413,19.2935792 Z" id="Path-2"></path>
                        <path d="M7.06892675,61.5494744 L0,65.526282 L3.86240684,68.8110232 L0,73.9960384 C2.57493789,73.9960384 3.86240684,73.9960384 3.86240684,73.9960384 C3.86240684,73.9960384 2.57493789,75.343932 0,78.039719 L3.86240684,79.6038011 L0,84.4546385 L3.86240684,84.4546385 C1.72472689,88.0728145 0.655886921,89.8819026 0.655886921,89.8819026 C0.655886921,89.8819026 2.77101273,88.7789805 7.00126436,86.5731363 L13.6281355,89.8819026 L11.1679291,84.4546385 L14.7577362,84.4546385 L11.1679291,79.6038011 L14.7577362,79.6038011 L11.1679291,73.9960384 C13.5611338,73.9960384 14.7577362,73.9960384 14.7577362,73.9960384 C14.7577362,73.9960384 13.5611338,72.2677 11.1679291,68.8110232 C13.5611338,66.6211958 14.7577362,65.526282 14.7577362,65.526282 C14.7577362,65.526282 12.1947997,64.2006795 7.06892675,61.5494744 Z" id="Path-3"></path>
                        <path d="M6.81427215,17.0154924 C6.81427215,29.1600743 6.81427215,37.6569191 6.81427215,42.5060266 C6.81427215,47.3551342 6.81427215,52.2042418 6.81427215,57.0533493 L6.81427215,61.5494744" id="Path-4" stroke-width="2"></path>
                    </g>
                    <g id="Group-Arrow" transform="translate(217.6416, 30.0727) rotate(-238) translate(-217.6416, -30.0727)translate(210.2627, -14.8682)">
                        <path d="M1.31679413,19.2935792 C5.15154921,6.43119307 7.06892675,-1.42108547e-14 7.06892675,-1.42108547e-14 C7.06892675,-1.42108547e-14 8.98630429,6.43119307 12.8210594,19.2935792 L6.81427215,17.0154924 L1.31679413,19.2935792 Z" id="Path-2"></path>
                        <path d="M7.06892675,61.5494744 L0,65.526282 L3.86240684,68.8110232 L0,73.9960384 C2.57493789,73.9960384 3.86240684,73.9960384 3.86240684,73.9960384 C3.86240684,73.9960384 2.57493789,75.343932 0,78.039719 L3.86240684,79.6038011 L0,84.4546385 L3.86240684,84.4546385 C1.72472689,88.0728145 0.655886921,89.8819026 0.655886921,89.8819026 C0.655886921,89.8819026 2.77101273,88.7789805 7.00126436,86.5731363 L13.6281355,89.8819026 L11.1679291,84.4546385 L14.7577362,84.4546385 L11.1679291,79.6038011 L14.7577362,79.6038011 L11.1679291,73.9960384 C13.5611338,73.9960384 14.7577362,73.9960384 14.7577362,73.9960384 C14.7577362,73.9960384 13.5611338,72.2677 11.1679291,68.8110232 C13.5611338,66.6211958 14.7577362,65.526282 14.7577362,65.526282 C14.7577362,65.526282 12.1947997,64.2006795 7.06892675,61.5494744 Z" id="Path-3"></path>
                        <polyline id="Path-4" stroke-width="2" points="6.81427215 17.0154924 6.81427215 57.0533493 6.81427215 61.5494744"></polyline>
                    </g>
                    <g id="Group-Arrow" transform="translate(42.0678, 29.7973) rotate(-121) translate(-42.0678, -29.7973)translate(34.6889, -14.8467)">
                        <path d="M0.959911053,19.2935792 C4.79466613,6.43119307 6.71204367,0 6.71204367,0 C6.71204367,0 8.62942121,6.43119307 12.4641763,19.2935792 L6.45738907,17.0154924 L0.959911053,19.2935792 Z" id="Path-2"></path>
                        <path d="M7.06892675,60.9555212 L0,64.9323288 L3.86240684,68.21707 L0,73.4020852 C2.57493789,73.4020852 3.86240684,73.4020852 3.86240684,73.4020852 C3.86240684,73.4020852 2.57493789,74.7499788 0,77.4457658 L3.86240684,79.0098479 L0,83.8606853 L3.86240684,83.8606853 C1.72472689,87.4788614 0.655886921,89.2879494 0.655886921,89.2879494 C0.655886921,89.2879494 2.77101273,88.1850273 7.00126436,85.9791831 L13.6281355,89.2879494 L11.1679291,83.8606853 L14.7577362,83.8606853 L11.1679291,79.0098479 L14.7577362,79.0098479 L11.1679291,73.4020852 C13.5611338,73.4020852 14.7577362,73.4020852 14.7577362,73.4020852 C14.7577362,73.4020852 13.5611338,71.6737468 11.1679291,68.21707 C13.5611338,66.0272426 14.7577362,64.9323288 14.7577362,64.9323288 C14.7577362,64.9323288 12.1947997,63.6067263 7.06892675,60.9555212 Z" id="Path-3"></path>
                        <polyline id="Path-4" stroke-width="2" points="6.45738907 17.0154924 6.45738907 57.0533493 6.45738907 61.5494744"></polyline>
                    </g>
                </g>
            </g>
            <g id="Group-99" transform="translate(106.9655, 162.5584)" fill="#000000" stroke="#000000">
                <path d="M34.0960058,46.3267996 C28.9777374,55.2705732 23.7123925,59.485505 18.2999712,58.9715952 C10.1813393,58.2007306 3.08660129,49.0629628 1.36585413,44.3411721 C-0.354893032,39.6193813 -0.74251454,31.8170244 1.93181019,25.4843573 C3.71469335,21.2625792 8.59427131,16.1818749 16.5705441,10.2422444 C25.7922463,3.41408148 32.8404651,0 37.7152004,0 C45.0273034,0 56.1671813,14.7706915 57.4879578,20.1275244 C58.8087344,25.4843573 62.657879,35.309912 57.4879578,46.3267996 C55.3737302,50.8321311 49.9037836,61.9978431 41.2256992,70.1774715 C27.1954985,83.4017987 15.9042839,93.221377 12.1785902,92.3683458 C10.9053709,91.0739936 9.25291228,89.6664804 9.66900361,87.8053499 C13.7034682,84.2040147 26.1469539,73.2436139 32.4082919,63.6277506 C38.6696299,54.0118872 39.7070172,46.4967331 39.7070172,39.1244032 C39.7070172,31.7520734 36.5395936,26.1097632 33.7237793,22.2611043 C30.9079649,18.4124454 27.2114224,13.1132056 22.2856001,15.092352 C19.3619858,16.0872779 18.2505986,17.630032 17.3157308,18.5400163 C15.6848125,20.1275244 16.9990078,28.429536 21.8247473,35.7491659 C25.0792335,40.6855357 29.169653,44.2114136 34.0960058,46.3267996 Z" id="Path"></path>
                <path d="M102.096006,46.3267996 C96.9777374,55.2705732 91.7123925,59.485505 86.2999712,58.9715952 C78.1813393,58.2007306 71.0866013,49.0629628 69.3658541,44.3411721 C67.645107,39.6193813 67.2574855,31.8170244 69.9318102,25.4843573 C71.7146934,21.2625792 76.5942713,16.1818749 84.5705441,10.2422444 C93.7922463,3.41408148 100.840465,2.84217094e-14 105.7152,2.84217094e-14 C113.027303,2.84217094e-14 124.167181,14.7706915 125.487958,20.1275244 C126.808734,25.4843573 130.657879,35.309912 125.487958,46.3267996 C123.37373,50.8321311 117.903784,61.9978431 109.225699,70.1774715 C95.1954985,83.4017987 83.9042839,93.221377 80.1785902,92.3683458 C78.9053709,91.0739936 77.2529123,89.6664804 77.6690036,87.8053499 C81.7034682,84.2040147 94.1469539,73.2436139 100.408292,63.6277506 C106.66963,54.0118872 107.707017,46.4967331 107.707017,39.1244032 C107.707017,31.7520734 104.539594,26.1097632 101.723779,22.2611043 C98.9079649,18.4124454 95.2114224,13.1132056 90.2856001,15.092352 C87.3619858,16.0872779 86.2505986,17.630032 85.3157308,18.5400163 C83.6848125,20.1275244 84.9990078,28.429536 89.8247473,35.7491659 C93.0792335,40.6855357 97.169653,44.2114136 102.096006,46.3267996 Z" id="Path"></path>
            </g>
            <g id="Group-stars" transform="translate(27.7079, 81.0295)" fill="#FFF500" stroke="#FFF500">
                <path d="M107.089021,13.2307805 L105.886246,31.1791008 L123.061625,29.9140428 L110.069825,41.7462797 L123.061625,53.5785165 L105.886246,52.3134585 L107.089021,70.2617789 L95.8281857,56.6718733 L84.56735,70.2617789 L85.7701255,52.3134585 L68.5947466,53.5785165 L81.5865469,41.7462797 L68.5947466,29.9140428 L85.7701255,31.1791008 L84.56735,13.2307805 L95.8281857,26.820686 L107.089021,13.2307805 Z" id="Star" transform="translate(95.8282, 41.7463) rotate(-22) translate(-95.8282, -41.7463)"></path>
                <path d="M201.089021,13.2307805 L199.886246,31.1791008 L217.061625,29.9140428 L204.069825,41.7462797 L217.061625,53.5785165 L199.886246,52.3134585 L201.089021,70.2617789 L189.828186,56.6718733 L178.56735,70.2617789 L179.770126,52.3134585 L162.594747,53.5785165 L175.586547,41.7462797 L162.594747,29.9140428 L179.770126,31.1791008 L178.56735,13.2307805 L189.828186,26.820686 L201.089021,13.2307805 Z" id="Star" transform="translate(189.8282, 41.7463) rotate(-22) translate(-189.8282, -41.7463)"></path>
                <path d="M107.089021,194.23078 L105.886246,212.179101 L123.061625,210.914043 L110.069825,222.74628 L123.061625,234.578517 L105.886246,233.313459 L107.089021,251.261779 L95.8281857,237.671873 L84.56735,251.261779 L85.7701255,233.313459 L68.5947466,234.578517 L81.5865469,222.74628 L68.5947466,210.914043 L85.7701255,212.179101 L84.56735,194.23078 L95.8281857,207.820686 L107.089021,194.23078 Z" id="Star" transform="translate(95.8282, 222.7463) rotate(-22) translate(-95.8282, -222.7463)"></path>
                <path d="M201.089021,194.23078 L199.886246,212.179101 L217.061625,210.914043 L204.069825,222.74628 L217.061625,234.578517 L199.886246,233.313459 L201.089021,251.261779 L189.828186,237.671873 L178.56735,251.261779 L179.770126,233.313459 L162.594747,234.578517 L175.586547,222.74628 L162.594747,210.914043 L179.770126,212.179101 L178.56735,194.23078 L189.828186,207.820686 L201.089021,194.23078 Z" id="Star" transform="translate(189.8282, 222.7463) rotate(-22) translate(-189.8282, -222.7463)"></path>
                <path d="M47.2965353,96.8577508 L46.0937597,114.806071 L63.2691387,113.541013 L50.2773384,125.37325 L63.2691387,137.205487 L46.0937597,135.940429 L47.2965353,153.888749 L36.0356996,140.298844 L24.7748639,153.888749 L25.9776394,135.940429 L8.80226042,137.205487 L21.7940607,125.37325 L8.80226042,113.541013 L25.9776394,114.806071 L24.7748639,96.8577508 L36.0356996,110.447656 L47.2965353,96.8577508 Z" id="Star" transform="translate(36.0357, 125.3732) rotate(-83) translate(-36.0357, -125.3732)"></path>
                <path d="M261.880446,96.1671424 L260.67767,114.115463 L277.853049,112.850405 L264.861249,124.682642 L277.853049,136.514878 L260.67767,135.24982 L261.880446,153.198141 L250.61961,139.608235 L239.358774,153.198141 L240.56155,135.24982 L223.386171,136.514878 L236.377971,124.682642 L223.386171,112.850405 L240.56155,114.115463 L239.358774,96.1671424 L250.61961,109.757048 L261.880446,96.1671424 Z" id="Star" transform="translate(250.6196, 124.6826) rotate(-84) translate(-250.6196, -124.6826)"></path>
            </g>
        </g>
    </g>
</svg>